<svg version="1.1" viewBox="0.0 0.0 100.0 100.0" fill="none" stroke="none" stroke-linecap="square" stroke-miterlimit="10" xmlns:xlink="http://www.w3.org/1999/xlink" xmlns="http://www.w3.org/2000/svg"><clipPath id="p.0"><path d="m0 0l100.0 0l0 100.0l-100.0 0l0 -100.0z" clip-rule="nonzero"/></clipPath><g clip-path="url(#p.0)"><path fill="#000000" fill-opacity="0.0" d="m0 0l100.0 0l0 100.0l-100.0 0z" fill-rule="evenodd"/><path fill="#cfe2f3" d="m0 25.0l75.0 0l0 75.0l-75.0 0z" fill-rule="evenodd"/><path fill="#a5b4c2" d="m75.0 25.0l25.0 -25.0l0 75.0l-25.0 25.0z" fill-rule="evenodd"/><path fill="#d8e7f5" d="m0 25.0l25.0 -25.0l75.0 0l-25.0 25.0z" fill-rule="evenodd"/><path fill="#000000" fill-opacity="0.0" d="m0 25.0l25.0 -25.0l75.0 0l0 75.0l-25.0 25.0l-75.0 0zm0 0l75.0 0l25.0 -25.0m-25.0 25.0l0 75.0" fill-rule="evenodd"/></g></svg>