<svg version="1.1" viewBox="0.0 0.0 100.0 100.0" fill="none" stroke="none" stroke-linecap="square" stroke-miterlimit="10" xmlns:xlink="http://www.w3.org/1999/xlink" xmlns="http://www.w3.org/2000/svg"><clipPath id="p.0"><path d="m0 0l100.0 0l0 100.0l-100.0 0l0 -100.0z" clip-rule="nonzero"/></clipPath><g clip-path="url(#p.0)"><path fill="#000000" fill-opacity="0.0" d="m0 0l100.0 0l0 100.0l-100.0 0z" fill-rule="evenodd"/><path fill="#000000" fill-opacity="0.0" d="m47.89501 -0.062992126l0 100.12599" fill-rule="evenodd"/><path stroke="#000000" stroke-width="1.0" stroke-linejoin="round" stroke-linecap="butt" d="m47.89501 -0.062992126l0 100.12599" fill-rule="evenodd"/><path fill="#000000" fill-opacity="0.0" d="m72.05249 -0.062992126l0 100.12599" fill-rule="evenodd"/><path stroke="#000000" stroke-width="1.0" stroke-linejoin="round" stroke-linecap="butt" d="m72.05249 -0.062992126l0 100.12599" fill-rule="evenodd"/><path fill="#000000" fill-opacity="0.0" d="m23.973753 -0.062992126l0 100.12599" fill-rule="evenodd"/><path stroke="#000000" stroke-width="1.0" stroke-linejoin="round" stroke-linecap="butt" d="m23.973753 -0.062992126l0 100.12599" fill-rule="evenodd"/><path fill="#000000" fill-opacity="0.0" d="m100.0 -0.062992126l0 100.12599" fill-rule="evenodd"/><path stroke="#000000" stroke-width="1.0" stroke-linejoin="round" stroke-linecap="butt" d="m100.0 -0.062992126l0 100.12599" fill-rule="evenodd"/><path fill="#000000" fill-opacity="0.0" d="m0 -0.062992126l0 100.12599" fill-rule="evenodd"/><path stroke="#000000" stroke-width="1.0" stroke-linejoin="round" stroke-linecap="butt" d="m0 -0.062992126l0 100.12599" fill-rule="evenodd"/><path fill="#000000" fill-opacity="0.0" d="m100.062996 47.89501l-100.12599 0" fill-rule="evenodd"/><path stroke="#000000" stroke-width="1.0" stroke-linejoin="round" stroke-linecap="butt" d="m100.062996 47.89501l-100.12599 0" fill-rule="evenodd"/><path fill="#000000" fill-opacity="0.0" d="m100.062996 72.05249l-100.12599 0" fill-rule="evenodd"/><path stroke="#000000" stroke-width="1.0" stroke-linejoin="round" stroke-linecap="butt" d="m100.062996 72.05249l-100.12599 0" fill-rule="evenodd"/><path fill="#000000" fill-opacity="0.0" d="m100.062996 23.973753l-100.12599 0" fill-rule="evenodd"/><path stroke="#000000" stroke-width="1.0" stroke-linejoin="round" stroke-linecap="butt" d="m100.062996 23.973753l-100.12599 0" fill-rule="evenodd"/><path fill="#000000" fill-opacity="0.0" d="m100.062996 100.0l-100.12599 0" fill-rule="evenodd"/><path stroke="#000000" stroke-width="1.0" stroke-linejoin="round" stroke-linecap="butt" d="m100.062996 100.0l-100.12599 0" fill-rule="evenodd"/><path fill="#000000" fill-opacity="0.0" d="m100.062996 0l-100.12599 0" fill-rule="evenodd"/><path stroke="#000000" stroke-width="1.0" stroke-linejoin="round" stroke-linecap="butt" d="m100.062996 0l-100.12599 0" fill-rule="evenodd"/></g></svg>